<svg id="Layer_1" data-name="Layer 1" xmlns="http://www.w3.org/2000/svg" viewBox="0 0 300 300"><title>TV</title><path d="M245.36,166.94a7.58,7.58,0,1,0,7.58-7.58A7.58,7.58,0,0,0,245.36,166.94Zm13.29.06a5.78,5.78,0,1,1-5.77-5.78A5.77,5.77,0,0,1,258.65,167Z"/><path d="M267.32,197.41a16,16,0,1,0,16,16A16,16,0,0,0,267.32,197.41Zm0,28.52a12.56,12.56,0,1,1,12.56-12.56A12.56,12.56,0,0,1,267.32,225.93Z"/><path d="M294.32,103.4a3.73,3.73,0,0,0-3.15-3.19q-55.86-5.85-112-7a12.64,12.64,0,0,0-4.53-4.09L231,32c1.62-4,1-6.38-3-8L170.67,1.53a7.84,7.84,0,0,0-10.2,4.33L146.67,83,145,83a83.15,83.15,0,0,0-18.54,2L99,11.54a6.57,6.57,0,0,0-9.29-.23L53.64,45.63a6.57,6.57,0,0,0-.24,9.29l60,35.47a9.88,9.88,0,0,0-2.77,3.1q-50,1.52-99.83,6.72a3.73,3.73,0,0,0-3.15,3.19,757.75,757.75,0,0,0,0,159.2,3.73,3.73,0,0,0,3.15,3.19q13,1.36,26.09,2.48c-2.92,9.73-3,9.88-8.32,26a1.91,1.91,0,0,0,.45,1.76,12.24,12.24,0,0,0,8.59,3.55,2.39,2.39,0,0,0,1.56-.93C53.88,282.13,54,282,63.76,270.28a1343.31,1343.31,0,0,0,166.43.5c9.35,11.22,9.68,11.59,24.16,27.86a2.34,2.34,0,0,0,1.55.93,12.24,12.24,0,0,0,8.59-3.55,1.91,1.91,0,0,0,.45-1.76c-5.22-15.73-5.39-16.24-8.11-25.32q17.18-1.35,34.34-3.15a3.73,3.73,0,0,0,3.15-3.19A757.75,757.75,0,0,0,294.32,103.4ZM166.79,27.51c1.63-4,5-9,11-7l28,10c2.17.88,4.63,5,3,9L171.33,87.44a60.75,60.75,0,0,0-17.25-4ZM69.8,55c-1.86-2.41-2-5.41-.31-6.72l23.17-18c1.69-1.3,4.57-.42,6.43,2l24,53.4a1.18,1.18,0,0,1,.11.19,33.59,33.59,0,0,0-8.59,3.7ZM231.32,255.56a3.71,3.71,0,0,1-3.15,3.18,1025.27,1025.27,0,0,1-211.34,0,3.71,3.71,0,0,1-3.15-3.18,692.84,692.84,0,0,1,0-145.12,3.71,3.71,0,0,1,3.15-3.18,1025.27,1025.27,0,0,1,211.34,0,3.71,3.71,0,0,1,3.15,3.18A692.84,692.84,0,0,1,231.32,255.56ZM239,112h47a2.18,2.18,0,0,1,0,4H239A2.18,2.18,0,0,1,239,112Zm.5,6h47a2.18,2.18,0,0,1,0,4h-47A2.18,2.18,0,0,1,239.5,118Zm.5,6h47a2.18,2.18,0,0,1,0,4H240A2.18,2.18,0,0,1,240,124Zm.5,6h47a2.18,2.18,0,0,1,0,4h-47A2.18,2.18,0,0,1,240.5,130Zm.5,6h47a2.18,2.18,0,0,1,0,4H241A2.18,2.18,0,0,1,241,136Zm.5,6h47a2.18,2.18,0,0,1,0,4h-47A2.18,2.18,0,0,1,241.5,142Zm.5,6h47a2.18,2.18,0,0,1,0,4H242A2.18,2.18,0,0,1,242,148Zm49,19a10,10,0,1,1-10-10A10,10,0,0,1,291,167Zm-28,0a10,10,0,1,1-10-10A10,10,0,0,1,263,167Zm29.69,49.74h-2.85c-.12.79-.27,1.58-.46,2.34l2.62,1.09-2.47,6-2.64-1.09c-.41.69-.85,1.35-1.32,2l2,2L283,233.64l-2-2a22.23,22.23,0,0,1-2,1.33l1.09,2.63-6,2.48L273,235.44a23,23,0,0,1-2.34.46v2.85H264.2V235.9a22,22,0,0,1-2.34-.46l-1.09,2.63-6-2.48,1.09-2.63a22.07,22.07,0,0,1-2-1.33l-2,2-4.58-4.58,2-2a22.23,22.23,0,0,1-1.33-2l-2.63,1.09-2.48-6,2.63-1.09a22.51,22.51,0,0,1-.46-2.34h-2.85v-6.48H245a22.51,22.51,0,0,1,.46-2.34l-2.63-1.09,2.48-6,2.63,1.09a22.23,22.23,0,0,1,1.33-2l-2-2,4.58-4.58,2,2a22.07,22.07,0,0,1,2-1.33l-1.09-2.63,6-2.48,1.09,2.63a22,22,0,0,1,2.34-.46v-2.85h6.48v2.85a23,23,0,0,1,2.34.46l1.09-2.63,6,2.48L279,194a22.23,22.23,0,0,1,2,1.33l2-2,4.58,4.58-2,2c.47.64.91,1.3,1.32,2l2.64-1.09,2.47,6-2.62,1.09c.19.76.34,1.55.46,2.34h2.85Z"/><path d="M280.94,159.36a7.58,7.58,0,1,0,7.58,7.58A7.58,7.58,0,0,0,280.94,159.36Zm-.06,13.42a5.78,5.78,0,1,1,5.77-5.78A5.78,5.78,0,0,1,280.88,172.78Z"/></svg>